<svg aria-hidden="true" style="position: absolute; width: 0; height: 0; overflow: hidden;" version="1.1" xmlns="http://www.w3.org/2000/svg" xmlns:xlink="http://www.w3.org/1999/xlink">
<defs>
<symbol id="facebook" viewBox="0 0 34 32">
<path fill="#3b78f0" style="fill: var(--color1, #3b78f0)" d="M16.005 0.003c-8.835 0-15.998 7.163-15.998 15.998 0 7.984 5.85 14.602 13.499 15.806v-11.181h-4.064v-4.626h4.064v-3.525c0-4.013 2.389-6.226 6.042-6.226 1.75 0 3.584 0.312 3.584 0.312v3.934h-2.022c-1.984 0-2.605 1.235-2.605 2.501v3h4.434l-0.709 4.626h-3.725v11.181c7.65-1.198 13.499-7.818 13.499-15.803 0-8.835-7.163-15.998-15.998-15.998z"></path>
</symbol>
<symbol id="google" viewBox="0 0 32 32">
<path fill="#ff5050" style="fill: var(--color2, #ff5050)" d="M30.728 13.077h-14.803v6.135h8.519c-0.793 3.899-4.112 6.139-8.519 6.139-5.196 0-9.385-4.188-9.385-9.387 0-5.196 4.188-9.385 9.385-9.385 2.238 0 4.261 0.795 5.849 2.094l4.622-4.62c-2.816-2.455-6.427-3.97-10.471-3.97-8.807 0-15.883 7.074-15.883 15.883s7.074 15.883 15.883 15.883c7.941 0 15.163-5.776 15.163-15.883 0-0.939-0.144-1.95-0.359-2.889z"></path>
</symbol>
<symbol id="icon-1" viewBox="0 0 32 32">
<path d="M16.246 0.262l15.294 10.147c0.14 0.089 0.225 0.25 0.222 0.403l-0 0.008v10.283l0 0.008c0.002 0.083-0.022 0.177-0.083 0.268l-0.001 0.002c-0.033 0.050-0.079 0.095-0.138 0.133l-0.007 0.004-15.296 10.151c-0.070 0.049-0.157 0.079-0.262 0.079-0.098 0-0.186-0.029-0.261-0.081l-0.006-0.004-15.281-10.14c-0.159-0.106-0.237-0.235-0.237-0.428v-10.275l-0-0.008c-0.002-0.086 0.021-0.176 0.078-0.261 0.040-0.059 0.088-0.103 0.132-0.13l0.013-0.008 15.302-10.155c0.13-0.090 0.392-0.091 0.525 0.001l0.006 0.004zM23.582 15.36l6.859-4.551-13.998-9.285v9.035l7.139 4.801zM15.506 10.56v-9.036l-13.994 9.288 6.855 4.549 7.139-4.801zM7.524 15.93l-6.391-4.243v8.542l6.391-4.299zM1.506 21.113l14 9.287v-9.172l-7.136-4.734-6.864 4.619zM9.218 15.923l6.755 4.488 6.762-4.488-6.762-4.546-6.755 4.546zM16.445 21.226v9.174l13.998-9.289-6.86-4.62-7.137 4.734zM24.427 15.93l6.394 4.299v-8.542l-6.394 4.243z"></path>
</symbol>
<symbol id="icon-2" viewBox="0 0 38 32">
<path d="M31.013 8.114h-8.749v-1.77h8.749v1.77z"></path>
<path d="M7.111 30.539v-7.662h-3.934c-1.551 0-2.814-1.263-2.814-2.814v-15.262c0-2.645 2.155-4.8 4.8-4.8h27.801c2.645 0 4.8 2.155 4.8 4.8v15.262c0 1.551-1.263 2.814-2.814 2.814h-3.938v7.662c0 0.732-0.597 1.328-1.328 1.328h-21.246c-0.732 0-1.328-0.596-1.328-1.328zM31.013 14.264v6.956h5.095v-16.42c0-1.733-1.407-3.143-3.143-3.143h-27.801c-1.733 0-3.143 1.41-3.143 3.143v16.42h5.091v-6.956c0-0.732 0.597-1.328 1.328-1.328h21.246c0.732 0 1.328 0.597 1.328 1.328zM8.643 14.468v15.866h20.84l-0.003-15.866h-20.837z"></path>
<path d="M15.659 22.786l1.702 2.269 3.404-4.539 4.426 5.901h-12.255l2.723-3.631z"></path>
</symbol>
<symbol id="icon-3" viewBox="0 0 32 32">
<path d="M6.971 16.972h8.057v1.39h-8.057v-1.39z"></path>
<path d="M6.971 23.638h8.057v1.39h-8.057v-1.39z"></path>
<path d="M29.333 21.695h-7.638v7.638c0 1.302-1.060 2.362-2.362 2.362h-16.667c-1.302 0-2.362-1.060-2.362-2.362v-16.667c0-1.302 1.060-2.362 2.362-2.362h7.638v-7.638c0-1.302 1.060-2.362 2.362-2.362h16.667c1.302 0 2.362 1.060 2.362 2.362v16.667c0 1.302-1.060 2.362-2.362 2.362zM1.695 11.695v18.61h18.613l-0.004-18.61h-18.609zM21.695 20.305h8.61v-18.61h-18.61v8.61h7.638c1.302 0 2.362 1.060 2.362 2.362v7.638z"></path>
</symbol>
<symbol id="icon-4" viewBox="0 0 34 32">
<path d="M7.366 7.316h1.191v15.557h-1.191v-15.557z"></path>
<path d="M18.181 7.316h1.22v15.557h-1.22v-15.557z"></path>
<path d="M26.445 1.006v4.548h4.548c1.376 0 2.496 1.12 2.496 2.496v14.088c0 1.376-1.12 2.496-2.496 2.496h-4.548v2.787c0 2.346-1.911 4.257-4.257 4.257h-17.61c-2.346 0-4.257-1.911-4.257-4.257v-26.415c0-0.406 0.328-0.735 0.735-0.735h24.654c0.406 0 0.735 0.329 0.735 0.735zM24.976 27.422v-25.681h-23.185v25.681c0 1.536 1.248 2.787 2.787 2.787h17.61c1.54 0 2.787-1.251 2.787-2.787zM26.445 23.165h5.575v-16.141h-5.575v16.141z"></path>
</symbol>
<symbol id="icon-5" viewBox="0 0 35 32">
<path d="M7.655 16.753h5.187v1.527h-5.187v-1.527z"></path>
<path d="M32.209 25.6h-9.454l3.934 5.245-1.221 0.916-4.621-6.162h-6.557l-4.621 6.162-1.221-0.916 3.934-5.245h-9.454c-1.429 0-2.593-1.164-2.593-2.593v-20.131c0-1.429 1.164-2.593 2.593-2.593h29.281c1.429 0 2.593 1.164 2.593 2.593v20.131c0 1.429-1.164 2.593-2.593 2.593zM1.861 1.809v22.264h31.416l-0.002-22.264h-31.414z"></path>
</symbol>
<symbol id="icon-6" viewBox="0 0 34 32">
<path d="M0 0v1.48h0.001v2.822c0 1.699 1.378 3.077 3.077 3.077l8.041-0-0.017 10.087c-0.002 0.641 0.299 1.245 0.812 1.629l4.249 3.188v7.642h-0.017v1.499h17.656v-1.499h-16.159v-7.618l4.23-3.211c0.504-0.383 0.801-0.979 0.803-1.611l0.017-10.106h8.031c1.699 0 3.077-1.378 3.077-3.077l-0-2.821h0.004v-1.48h-33.805zM1.5 5.879v-4.399h30.801v4.399l-30.801 0zM12.597 17.767l0.022-10.389h8.58l-0.014 6.574h-5.518v1.499h5.515l-0.005 2.307-4.242 3.279-4.338-3.27z"></path>
<path d="M4.487 29.925h7.114v1.548h-7.114v-1.548z"></path>
<path d="M6.65 21.532l-0.92 1.244 5.719 4.23 0.92-1.244-5.719-4.23z"></path>
<path d="M28.363 22.777l-0.92-1.244-5.719 4.23 0.92 1.244 5.719-4.23z"></path>
</symbol>
<symbol id="icon-7" viewBox="0 0 36 32">
<path d="M21.823 16.077c1.089 0 1.972-0.883 1.972-1.972v-1.848h-3.943v1.848c0 1.089 0.883 1.972 1.972 1.972z"></path>
<path d="M11.251 0.814l-0.124 0.040c-2.383 0.771-7.058 2.303-9.331 3.048l-0.122 0.040c-0.71 0.233-1.181 0.892-1.181 1.639v6.423c0 1.123 1.056 1.95 2.147 1.677l4.767-1.191v17.395c0 0.954 0.773 1.728 1.728 1.728h17.284c0.956 0 1.728-0.774 1.728-1.728v-17.395l4.767 1.191c1.091 0.273 2.147-0.551 2.147-1.677v-6.423c0-0.747-0.47-1.405-1.182-1.639-2.223-0.729-7.025-2.303-9.451-3.087l-0.124-0.040c-0.791-0.256-1.301-0.418-1.34-0.424-0.002-0-0.002 0-0.002 0 0 0.509-0.073 1.001-0.21 1.466l-0.005 0.015c-0.637 2.142-2.621 3.704-4.971 3.704s-4.333-1.562-4.971-3.704l-0.005-0.015c-0.137-0.465-0.21-0.957-0.21-1.466 0 0-0.001-0-0.002 0-0.039 0.006-0.549 0.169-1.339 0.424zM26.821 3.19c2.348 0.766 5.076 1.66 6.597 2.159 0.095 0.031 0.162 0.116 0.162 0.231v6.423c0 0.162-0.151 0.278-0.305 0.239l-6.608-1.651v19.292c0 0.137-0.11 0.247-0.247 0.247h-17.284c-0.137 0-0.247-0.11-0.247-0.247v-19.292l-6.608 1.651c-0.154 0.038-0.305-0.078-0.305-0.239v-6.423c0-0.115 0.068-0.2 0.161-0.231l0.122-0.040c1.543-0.505 4.19-1.373 6.476-2.119 0.997-0.325 1.925-0.627 2.662-0.866 0.829 2.739 3.372 4.732 6.382 4.732s5.553-1.994 6.382-4.732c0.737 0.239 1.664 0.541 2.661 0.866z"></path>
</symbol>
<symbol id="icon-8" viewBox="0 0 32 32">
<path d="M10.028 21.833c0 0.844-0.684 1.529-1.529 1.529s-1.529-0.684-1.529-1.529c0-0.844 0.684-1.529 1.529-1.529s1.529 0.684 1.529 1.529z"></path>
<path d="M25.028 21.833c0 0.844-0.684 1.529-1.529 1.529s-1.529-0.684-1.529-1.529c0-0.844 0.684-1.529 1.529-1.529s1.529 0.684 1.529 1.529z"></path>
<path d="M30.035 6v4.175l0.879 0.084c0.17 0.016 0.328 0.055 0.453 0.124 0.107 0.059 0.211 0.149 0.288 0.334 0.040 0.098 0.057 0.206 0.049 0.317l-0.003 0.035v3.265c0 0.384-0.311 0.695-0.695 0.695h-0.971v10.971c0 0.862-0.473 1.617-1.19 2.033l-0.483 0.281v2.686c0 0.385-0.31 0.695-0.695 0.695h-1.667c-0.385 0-0.695-0.31-0.695-0.695v-2.638h-18.61v2.638c0 0.385-0.31 0.695-0.695 0.695h-1.667c-0.385 0-0.695-0.31-0.695-0.695v-2.69l-0.48-0.282c-0.712-0.418-1.18-1.171-1.18-2.029v-10.971h-0.978c-0.385 0-0.695-0.311-0.695-0.695v-3.333c0-0.365 0.278-0.665 0.64-0.694l0.001-0 0.024-0.001c0.021-0.001 0.049-0.003 0.082-0.004l0.926-0.043v-4.257c0-3.14 2.555-5.695 5.695-5.695h16.667c3.14 0 5.695 2.555 5.695 5.695zM3.369 26.971h25.27v-2.172l0.009-8.105h-25.279v10.276zM3.369 15.305h11.943v-8.61h-11.943v8.61zM16.702 15.305h11.943v-8.61h-11.943v8.61zM3.112 5.305h25.789l-0.852-1.461c-0.741-1.27-2.114-2.149-3.709-2.149h-16.667c-1.595 0-2.968 0.879-3.709 2.149l-0.852 1.461z"></path>
</symbol>
<symbol id="icon-9" viewBox="0 0 39 32">
<path d="M34.588 16.927h-34.245v-1.854h34.245l-13.058-13.057 1.31-1.31 15.295 15.295-15.295 15.295-1.31-1.31 13.058-13.058z"></path>
</symbol>
<symbol id="lupa" viewBox="0 0 32 32">
<path d="M13.333 26.667c3.077 0 5.905-1.058 8.162-2.813l7.327 7.327 2.357-2.357-7.327-7.327c1.757-2.258 2.815-5.087 2.815-8.163 0-7.352-5.982-13.333-13.333-13.333s-13.333 5.982-13.333 13.333c0 7.352 5.982 13.333 13.333 13.333zM13.333 3.333c5.515 0 10 4.485 10 10s-4.485 10-10 10c-5.515 0-10-4.485-10-10s4.485-10 10-10z"></path>
</symbol>
<symbol id="promomix" viewBox="0 0 262 32">
<path fill="#f2353f" style="fill: var(--color3, #f2353f)" d="M180.293 31.994c2.053 0 3.718-1.665 3.718-3.719v-13.399l6.698 8.929c1.232 1.643 3.563 1.976 5.206 0.744s1.976-3.563 0.744-5.206l-13.392-17.855c-0.96-1.28-2.634-1.804-4.15-1.297-1.52 0.506-2.544 1.927-2.544 3.528v24.556c0 2.054 1.666 3.719 3.72 3.719z"></path>
<path fill="#f2353f" style="fill: var(--color3, #f2353f)" d="M7.438 28.275v-24.555c0-2.054-1.665-3.719-3.719-3.719s-3.719 1.665-3.719 3.719v24.555c0 2.054 1.665 3.719 3.719 3.719s3.719-1.665 3.719-3.719z"></path>
<path fill="#f2353f" style="fill: var(--color3, #f2353f)" d="M55.414 31.352c1.699-1.154 2.142-3.467 0.988-5.166l-5.588-8.23c-1.154-1.7-3.467-2.142-5.166-0.988s-2.142 3.467-0.988 5.166l5.588 8.23c0.719 1.060 1.889 1.631 3.080 1.631 0.719 0 1.446-0.208 2.086-0.643z"></path>
<path fill="#f2353f" style="fill: var(--color3, #f2353f)" d="M35.345 31.994c-2.054 0-3.719-1.665-3.719-3.719v-24.555c0-2.054 1.665-3.719 3.719-3.719s3.719 1.665 3.719 3.719v24.555c0 2.054-1.665 3.719-3.719 3.719z"></path>
<path fill="#f2353f" style="fill: var(--color3, #f2353f)" d="M82.954 28.242c0-2.054-1.665-3.719-3.719-3.719-4.71 0-8.542-3.832-8.542-8.543s3.832-8.542 8.542-8.542c2.054 0 3.719-1.665 3.719-3.719s-1.665-3.719-3.719-3.719c-8.812 0-15.98 7.168-15.98 15.98s7.169 15.981 15.98 15.981c2.054 0 3.719-1.665 3.719-3.719z"></path>
<path fill="#f2353f" style="fill: var(--color3, #f2353f)" d="M258.315 31.994c-1.006 0-2.008-0.406-2.742-1.206l-22.507-24.555c-1.387-1.514-1.285-3.867 0.229-5.254 1.515-1.389 3.867-1.285 5.256 0.228l22.506 24.555c1.389 1.515 1.286 3.867-0.229 5.255-0.714 0.654-1.614 0.978-2.512 0.978z"></path>
<path fill="#f2353f" style="fill: var(--color3, #f2353f)" d="M159.26 28.242c0-2.054-1.665-3.719-3.719-3.719-4.71 0-8.542-3.832-8.542-8.543s3.832-8.542 8.542-8.542c2.054 0 3.719-1.665 3.719-3.719s-1.665-3.719-3.719-3.719c-8.811 0-15.98 7.168-15.98 15.98s7.169 15.981 15.98 15.981c2.054 0 3.719-1.665 3.719-3.719z"></path>
<path fill="#f2353f" style="fill: var(--color3, #f2353f)" d="M225.538 28.275v-24.555c0-2.054-1.666-3.719-3.718-3.719-2.054 0-3.72 1.665-3.72 3.719v24.555c0 2.054 1.666 3.719 3.72 3.719 2.053 0 3.718-1.665 3.718-3.719z"></path>
<path fill="#f2353f" style="fill: var(--color3, #f2353f)" d="M103.997 31.994c2.054 0 3.719-1.665 3.719-3.719v-13.399l6.697 8.929c1.232 1.643 3.564 1.976 5.207 0.744s1.976-3.563 0.744-5.206l-13.392-17.855c-0.96-1.28-2.634-1.804-4.151-1.297-1.519 0.506-2.543 1.927-2.543 3.528v24.556c0 2.054 1.665 3.719 3.719 3.719z"></path>
<path fill="#5d626a" style="fill: var(--color4, #5d626a)" d="M207.062 32c-2.054-0.002-3.718-1.668-3.717-3.722l0.013-13.399-6.706 8.923c-1.234 1.642-3.565 1.973-5.206 0.739s-1.973-3.565-0.739-5.207l13.408-17.842c0.962-1.279 2.635-1.802 4.152-1.293 1.518 0.508 2.541 1.929 2.539 3.53l-0.022 24.556c-0.002 2.054-1.669 3.717-3.722 3.716z"></path>
<path fill="#5d626a" style="fill: var(--color4, #5d626a)" d="M48.408 23.702c5.669-1.040 9.783-5.983 9.783-11.753 0-6.589-5.36-11.948-11.949-11.948h-10.897c-2.054 0-3.719 1.665-3.719 3.719s1.665 3.719 3.719 3.719h10.897c2.487 0 4.511 2.024 4.511 4.511 0 2.179-1.551 4.045-3.688 4.437-2.020 0.37-3.358 2.309-2.987 4.329 0.329 1.793 1.893 3.048 3.653 3.048 0.223 0 0.449-0.020 0.676-0.062z"></path>
<path fill="#5d626a" style="fill: var(--color4, #5d626a)" d="M238.55 30.788l22.506-24.555c1.389-1.514 1.286-3.867-0.229-5.254-1.514-1.388-3.866-1.285-5.254 0.228l-22.507 24.555c-1.387 1.514-1.285 3.867 0.229 5.254 0.715 0.654 1.614 0.978 2.512 0.978 1.006 0 2.010-0.406 2.744-1.206z"></path>
<path fill="#5d626a" style="fill: var(--color4, #5d626a)" d="M171.523 15.981c0-8.811-7.17-15.98-15.981-15.98-2.054 0-3.719 1.665-3.719 3.719s1.665 3.719 3.719 3.719c4.71 0 8.542 3.832 8.542 8.542s-3.832 8.543-8.542 8.543c-2.054 0-3.719 1.665-3.719 3.719s1.665 3.719 3.719 3.719c8.811 0 15.981-7.169 15.981-15.981z"></path>
<path fill="#5d626a" style="fill: var(--color4, #5d626a)" d="M95.215 15.981c0-8.811-7.169-15.98-15.98-15.98-2.054 0-3.719 1.665-3.719 3.719s1.665 3.719 3.719 3.719c4.71 0 8.543 3.832 8.543 8.542s-3.832 8.543-8.543 8.543c-2.054 0-3.719 1.665-3.719 3.719s1.665 3.719 3.719 3.719c8.812 0 15.98-7.169 15.98-15.981z"></path>
<path fill="#5d626a" style="fill: var(--color4, #5d626a)" d="M26.565 11.949c0-6.589-5.36-11.948-11.949-11.948h-10.896c-2.054 0-3.719 1.665-3.719 3.719s1.665 3.719 3.719 3.719h10.896c2.488 0 4.511 2.024 4.511 4.511s-2.024 4.511-4.511 4.511h-10.896c-2.054 0-3.719 1.665-3.719 3.719s1.665 3.719 3.719 3.719h10.896c6.589 0 11.949-5.36 11.949-11.949z"></path>
<path fill="#5d626a" style="fill: var(--color4, #5d626a)" d="M130.765 32c-2.054-0.002-3.717-1.668-3.716-3.722l0.012-13.399-6.705 8.923c-1.234 1.642-3.566 1.973-5.207 0.739s-1.973-3.565-0.739-5.207l13.408-17.842c0.961-1.279 2.635-1.802 4.152-1.293 1.518 0.508 2.541 1.929 2.54 3.53l-0.022 24.556c-0.002 2.054-1.669 3.717-3.722 3.716z"></path>
<path fill="#1f2c37" style="fill: var(--color5, #1f2c37)" d="M196.658 19.342h0.002l-2.974-3.967-2.976 3.967h0.003c-0.467 0.621-0.746 1.391-0.746 2.227 0 2.054 1.664 3.719 3.718 3.719s3.718-1.665 3.718-3.719c0-0.836-0.28-1.606-0.746-2.227z"></path>
<path fill="#1f2c37" style="fill: var(--color5, #1f2c37)" d="M50.814 17.956c-1.398-2.135-4.648-2.139-6.074-0.107-0.892 1.185-0.959 2.911-0.156 4.158 1.983 3.191 6.366 1.273 8.705-0.407l-2.475-3.645z"></path>
<path fill="#1f2c37" style="fill: var(--color5, #1f2c37)" d="M3.719 7.439h3.719v-3.719c0-2.054-1.665-3.719-3.719-3.719s-3.719 1.665-3.719 3.719c0 2.054 1.665 3.719 3.719 3.719z"></path>
<path fill="#1f2c37" style="fill: var(--color5, #1f2c37)" d="M3.719 23.899h3.719v-7.438h-3.719c-2.054 0-3.719 1.665-3.719 3.719s1.665 3.719 3.719 3.719z"></path>
<path fill="#1f2c37" style="fill: var(--color5, #1f2c37)" d="M247.061 21.502l5.045-5.504-5.045-5.504-5.045 5.504 5.045 5.504z"></path>
<path fill="#1f2c37" style="fill: var(--color5, #1f2c37)" d="M79.235 7.439c2.054 0 3.719-1.665 3.719-3.719s-1.665-3.719-3.719-3.719c-2.054 0-3.719 1.665-3.719 3.719s1.665 3.719 3.719 3.719z"></path>
<path fill="#1f2c37" style="fill: var(--color5, #1f2c37)" d="M79.235 31.961c2.054 0 3.719-1.665 3.719-3.719s-1.665-3.719-3.719-3.719c-2.054 0-3.719 1.665-3.719 3.719s1.665 3.719 3.719 3.719z"></path>
<path fill="#1f2c37" style="fill: var(--color5, #1f2c37)" d="M155.542 7.439c2.054 0 3.719-1.665 3.719-3.719s-1.665-3.719-3.719-3.719c-2.054 0-3.719 1.665-3.719 3.719s1.665 3.719 3.719 3.719z"></path>
<path fill="#1f2c37" style="fill: var(--color5, #1f2c37)" d="M155.542 31.961c2.054 0 3.719-1.665 3.719-3.719s-1.665-3.719-3.719-3.719c-2.054 0-3.719 1.665-3.719 3.719s1.665 3.719 3.719 3.719z"></path>
<path fill="#1f2c37" style="fill: var(--color5, #1f2c37)" d="M35.345 7.439h3.719v-3.719c0-2.054-1.665-3.719-3.719-3.719s-3.719 1.665-3.719 3.719c0 2.054 1.665 3.719 3.719 3.719z"></path>
<path fill="#1f2c37" style="fill: var(--color5, #1f2c37)" d="M120.361 19.342h0.002l-2.975-3.967-2.973 3.967c-0.466 0.621-0.746 1.391-0.746 2.227 0 2.054 1.665 3.719 3.719 3.719s3.719-1.665 3.719-3.719c0-0.836-0.28-1.606-0.746-2.227z"></path>
</symbol>
<symbol id="icon-arrow" viewBox="0 0 42 32">
<path stroke-linejoin="miter" stroke-linecap="butt" stroke-miterlimit="4" stroke-width="3.2" d="M25.014 2.394l13.61 13.607-13.61 13.61M0 16h38.486"></path>
</symbol>
<symbol id="icon-plus" viewBox="0 0 32 32">
<path stroke-linejoin="miter" stroke-linecap="butt" stroke-miterlimit="4" stroke-width="1.3913" d="M16 0v32M0 16h32"></path>
</symbol>
<symbol id="twitter" viewBox="0 0 40 32">
<path fill="#36b0f5" style="fill: var(--color6, #36b0f5)" d="M35.266 7.993c0.026 0.35 0.026 0.698 0.026 1.046 0 10.65-8.106 22.922-22.92 22.922-4.564 0-8.804-1.322-12.372-3.618 0.648 0.074 1.272 0.1 1.946 0.1 3.766 0 7.232-1.272 10.002-3.442-3.542-0.074-6.51-2.394-7.534-5.586 0.498 0.074 0.998 0.124 1.522 0.124 0.722 0 1.448-0.1 2.122-0.274-3.694-0.748-6.46-3.99-6.46-7.906v-0.1c1.074 0.598 2.32 0.972 3.64 1.022-2.17-1.444-3.592-3.914-3.592-6.708 0-1.496 0.398-2.868 1.096-4.064 3.966 4.886 9.928 8.080 16.612 8.43-0.124-0.6-0.2-1.222-0.2-1.846 0-4.44 3.592-8.056 8.056-8.056 2.32 0 4.414 0.972 5.886 2.544 1.82-0.35 3.564-1.024 5.112-1.946-0.598 1.87-1.872 3.442-3.542 4.44 1.622-0.176 3.194-0.624 4.638-1.248-1.096 1.596-2.466 3.018-4.038 4.166z"></path>
</symbol>
<symbol id="vkontakte" viewBox="0 0 56 32">
<path fill="#0384da" style="fill: var(--color7, #0384da)" d="M52.211 2.28c0.373-1.24 0-2.149-1.765-2.149h-5.848c-1.488 0-2.168 0.787-2.541 1.651 0 0-2.973 7.251-7.187 11.952-1.36 1.368-1.981 1.8-2.723 1.8-0.371 0-0.909-0.432-0.909-1.672v-11.581c0-1.488-0.429-2.149-1.669-2.149h-9.189c-0.928 0-1.488 0.688-1.488 1.344 0 1.408 2.107 1.733 2.323 5.701v8.608c0 1.885-0.339 2.229-1.085 2.229-1.981 0-6.803-7.277-9.664-15.608-0.557-1.619-1.12-2.272-2.613-2.272h-5.845c-1.672 0-2.005 0.787-2.005 1.651 0 1.552 1.981 9.232 9.229 19.389 4.832 6.936 11.635 10.696 17.832 10.696 3.715 0 4.173-0.835 4.173-2.275v-5.243c0-1.669 0.355-2.005 1.531-2.005 0.864 0 2.352 0.437 5.821 3.779 3.963 3.963 4.619 5.741 6.845 5.741h5.845c1.669 0 2.504-0.835 2.024-2.483-0.525-1.64-2.419-4.027-4.931-6.851-1.365-1.611-3.405-3.344-4.027-4.211-0.867-1.117-0.616-1.611 0-2.603 0.003 0.003 7.125-10.029 7.867-13.44z"></path>
</symbol>
<symbol id="icon-circle" viewBox="0 0 32 32">
<path fill="#f2353f" style="fill: var(--color1, #f2353f)" opacity="0.15" d="M32 16c0 8.837-7.163 16-16 16s-16-7.163-16-16c0-8.837 7.163-16 16-16s16 7.163 16 16z"></path>
<path fill="#f2f4f7" style="fill: var(--color2, #f2f4f7)" d="M24.131 16c0 4.491-3.64 8.131-8.131 8.131s-8.131-3.64-8.131-8.131c0-4.491 3.64-8.131 8.131-8.131s8.131 3.64 8.131 8.131z"></path>
<path fill="#f2353f" style="fill: var(--color1, #f2353f)" d="M19.41 16c0 1.883-1.527 3.41-3.41 3.41s-3.41-1.527-3.41-3.41c0-1.883 1.527-3.41 3.41-3.41s3.41 1.527 3.41 3.41z"></path>
</symbol>
</defs>
</svg>
