<svg width="55" height="52" viewBox="0 0 55 52" fill="none" xmlns="http://www.w3.org/2000/svg">
<path fill-rule="evenodd" clip-rule="evenodd" d="M0 0V2.40448H0.00195312V6.98946C0.00195312 9.75088 2.24053 11.9895 5.00196 11.9895L18.0687 11.9894L18.0404 28.3812C18.0378 29.4225 18.5269 30.4039 19.3598 31.0289L26.2646 36.2099V48.6279H26.2363V51.0643H54.9267V48.6279H28.6686V36.2486L35.5425 31.0301C36.3617 30.4082 36.8441 29.4399 36.8471 28.4114L36.8755 11.9894L49.9266 11.9894C52.6881 11.9894 54.9267 9.75076 54.9266 6.9893L54.9265 2.40448H54.9334V0H0ZM2.43828 9.55313L2.43828 2.40448H52.4902V9.55306L2.43828 9.55313ZM20.4694 28.8722L20.505 11.9894L34.4469 11.9894L34.4244 22.6719H25.457V25.1082H34.4192L34.4113 28.8577L27.5183 34.1854L20.4694 28.8722Z" fill="#F2353F"/>
<path d="M7.29199 48.6283H18.8517V51.1436H7.29199V48.6283Z" fill="#F2353F"/>
<path d="M10.8057 34.9897L9.30997 37.0119L18.6036 43.8861L20.0993 41.8639L10.8057 34.9897Z" fill="#F2353F"/>
<path d="M46.0894 37.0119L44.5937 34.9897L35.3001 41.8639L36.7958 43.8861L46.0894 37.0119Z" fill="#F2353F"/>
</svg>
